<svg width="117" height="52" viewBox="0 0 117 52" fill="none" xmlns="http://www.w3.org/2000/svg">
<g clip-path="url(#clip0_2999_35557)">
<path d="M110.815 16.8121H105.972C105.629 16.8121 105.301 16.9482 105.058 17.1905C104.816 17.4328 104.68 17.7615 104.68 18.1041V21.3331C104.68 21.6758 104.544 22.0044 104.302 22.2467C104.059 22.489 103.731 22.6251 103.388 22.6251H100.479C100.136 22.6251 99.8077 22.489 99.5654 22.2467C99.3231 22.0044 99.187 21.6758 99.187 21.3331V18.1041C99.1871 17.9345 99.1538 17.7665 99.089 17.6098C99.0242 17.453 98.9291 17.3106 98.8092 17.1906C98.6893 17.0706 98.547 16.9754 98.3903 16.9105C98.2336 16.8455 98.0656 16.8121 97.896 16.8121H88.532C88.1893 16.8121 87.8607 16.9482 87.6184 17.1905C87.3761 17.4328 87.24 17.7615 87.24 18.1041V32.9571C87.24 33.2998 87.1039 33.6284 86.8616 33.8707C86.6193 34.113 86.2907 34.2491 85.948 34.2491H71.418C71.0753 34.2491 70.7467 34.113 70.5044 33.8707C70.2621 33.6284 70.126 33.2998 70.126 32.9571C70.126 32.6145 70.2621 32.2858 70.5044 32.0435C70.7467 31.8012 71.0753 31.6651 71.418 31.6651H80.459C80.8017 31.6651 81.1303 31.529 81.3726 31.2867C81.6149 31.0444 81.751 30.7158 81.751 30.3731V26.8211C81.751 26.4784 81.6149 26.1498 81.3726 25.9075C81.1303 25.6652 80.8017 25.5291 80.459 25.5291H71.418C71.0753 25.5291 70.7467 25.393 70.5044 25.1507C70.2621 24.9084 70.126 24.5798 70.126 24.2371C70.126 23.8945 70.2621 23.5658 70.5044 23.3235C70.7467 23.0812 71.0753 22.9451 71.418 22.9451H74.647C74.9897 22.9451 75.3183 22.809 75.5606 22.5667C75.8029 22.3244 75.939 21.9958 75.939 21.6531V18.1011C75.939 17.7584 75.8029 17.4298 75.5606 17.1875C75.3183 16.9452 74.9897 16.8091 74.647 16.8091H36.164C35.8213 16.8091 35.4927 16.9452 35.2504 17.1875C35.0081 17.4298 34.872 17.7584 34.872 18.1011V27.4651C34.872 27.8078 35.0081 28.1364 35.2504 28.3787C35.4927 28.621 35.8213 28.7571 36.164 28.7571H39.393C39.5627 28.757 39.7308 28.7903 39.8876 28.8552C40.0444 28.9201 40.1869 29.0152 40.3069 29.1352C40.4269 29.2552 40.522 29.3977 40.5869 29.5545C40.6518 29.7113 40.6851 29.8794 40.685 30.0491V32.9551C40.685 33.2978 40.5489 33.6264 40.3066 33.8687C40.0643 34.111 39.7357 34.2471 39.393 34.2471H30.679C30.3363 34.2471 30.0077 34.111 29.7654 33.8687C29.5231 33.6264 29.387 33.2978 29.387 32.9551V23.9141C29.3871 23.7444 29.3538 23.5763 29.2889 23.4195C29.224 23.2627 29.1289 23.1202 29.0089 23.0002C28.8889 22.8802 28.7464 22.7851 28.5896 22.7202C28.4328 22.6553 28.2647 22.622 28.095 22.6221H24.863C24.5203 22.6221 24.1917 22.486 23.9494 22.2437C23.7071 22.0014 23.571 21.6728 23.571 21.3301V18.4241C23.5709 18.2544 23.6042 18.0863 23.6691 17.9295C23.734 17.7727 23.8291 17.6302 23.9491 17.5102C24.0691 17.3902 24.2116 17.2951 24.3684 17.2302C24.5252 17.1653 24.6933 17.132 24.863 17.1321H28.092C28.434 17.1308 28.7615 16.9939 29.0027 16.7516C29.2439 16.5092 29.3793 16.1811 29.379 15.8391V12.2871C29.379 11.9444 29.2429 11.6158 29.0006 11.3735C28.7583 11.1312 28.4297 10.9951 28.087 10.9951H24.54C24.1973 10.9951 23.8687 11.1312 23.6264 11.3735C23.3841 11.6158 23.248 11.9444 23.248 12.2871V15.5161C23.2481 15.6858 23.2148 15.8539 23.1499 16.0107C23.085 16.1675 22.9899 16.31 22.8699 16.43C22.7499 16.55 22.6074 16.6452 22.4506 16.71C22.2938 16.7749 22.1257 16.8082 21.956 16.8081H7.104C6.93433 16.8081 6.76633 16.8415 6.60957 16.9065C6.45282 16.9714 6.31039 17.0666 6.19041 17.1865C6.07044 17.3065 5.97528 17.4489 5.91035 17.6057C5.84542 17.7624 5.812 17.9304 5.812 18.1001V27.4641C5.812 27.6338 5.84542 27.8018 5.91035 27.9585C5.97528 28.1153 6.07044 28.2577 6.19041 28.3777C6.31039 28.4977 6.45282 28.5928 6.60957 28.6578C6.76633 28.7227 6.93433 28.7561 7.104 28.7561H10.333C10.5027 28.756 10.6708 28.7893 10.8276 28.8542C10.9844 28.9191 11.1269 29.0142 11.2469 29.1342C11.3669 29.2542 11.462 29.3967 11.5269 29.5535C11.5918 29.7103 11.6251 29.8784 11.625 30.0481V32.9541C11.625 33.1238 11.5916 33.2918 11.5266 33.4485C11.4617 33.6053 11.3666 33.7477 11.2466 33.8677C11.1266 33.9877 10.9842 34.0828 10.8274 34.1478C10.6707 34.2127 10.5027 34.2461 10.333 34.2461H1.292C1.1223 34.246 0.954229 34.2793 0.797417 34.3442C0.640605 34.4091 0.49812 34.5042 0.378121 34.6242C0.258121 34.7442 0.162959 34.8867 0.0980763 35.0435C0.0331938 35.2003 -0.000131116 35.3684 3.87678e-07 35.5381V39.0901C-0.000131116 39.2598 0.0331938 39.4279 0.0980763 39.5847C0.162959 39.7415 0.258121 39.884 0.378121 40.004C0.49812 40.124 0.640605 40.2191 0.797417 40.284C0.954229 40.3489 1.1223 40.3822 1.292 40.3821H16.468C16.6376 40.3821 16.8056 40.3487 16.9623 40.2838C17.119 40.2188 17.2613 40.1236 17.3812 40.0036C17.5011 39.8836 17.5962 39.7412 17.661 39.5845C17.7258 39.4277 17.7591 39.2597 17.759 39.0901V29.7261C17.759 29.3836 17.623 29.0552 17.3809 28.8129C17.1389 28.5706 16.8105 28.4344 16.468 28.4341H13.239C13.0693 28.4342 12.9012 28.4009 12.7444 28.336C12.5876 28.2711 12.4451 28.176 12.3251 28.056C12.2051 27.936 12.11 27.7935 12.0451 27.6367C11.9802 27.4799 11.9469 27.3118 11.947 27.1421V24.2391C11.947 23.8964 12.0831 23.5678 12.3254 23.3255C12.5677 23.0832 12.8963 22.9471 13.239 22.9471H21.957C22.2997 22.9471 22.6283 23.0832 22.8706 23.3255C23.1129 23.5678 23.249 23.8964 23.249 24.2391V39.0921C23.2489 39.2618 23.2822 39.4299 23.3471 39.5867C23.412 39.7435 23.5071 39.886 23.6271 40.006C23.7471 40.126 23.8896 40.2212 24.0464 40.286C24.2032 40.3509 24.3713 40.3843 24.541 40.3841H45.529C45.8717 40.3841 46.2003 40.248 46.4426 40.0057C46.6849 39.7634 46.821 39.4348 46.821 39.0921V29.7281C46.821 29.3855 46.6849 29.0568 46.4426 28.8145C46.2003 28.5722 45.8717 28.4361 45.529 28.4361H42.299C42.1293 28.4362 41.9612 28.4029 41.8044 28.338C41.6476 28.2732 41.5051 28.178 41.3851 28.058C41.2651 27.938 41.17 27.7955 41.1051 27.6387C41.0402 27.4819 41.0069 27.3138 41.007 27.1441V24.2391C41.007 23.8964 41.1431 23.5678 41.3854 23.3255C41.6277 23.0832 41.9563 22.9471 42.299 22.9471H51.079C51.4217 22.9471 51.7503 23.0832 51.9926 23.3255C52.2349 23.5678 52.371 23.8964 52.371 24.2391V39.0921C52.3709 39.2618 52.4042 39.4299 52.4691 39.5867C52.534 39.7435 52.6291 39.886 52.7491 40.006C52.8691 40.126 53.0116 40.2212 53.1684 40.286C53.3252 40.3509 53.4933 40.3843 53.663 40.3841H57.215C57.3847 40.3843 57.5528 40.3509 57.7096 40.286C57.8664 40.2212 58.0089 40.126 58.1289 40.006C58.2489 39.886 58.344 39.7435 58.4089 39.5867C58.4738 39.4299 58.5071 39.2618 58.507 39.0921V24.2391C58.507 23.8964 58.6431 23.5678 58.8854 23.3255C59.1277 23.0832 59.4563 22.9471 59.799 22.9471H62.705C62.8746 22.9471 63.0426 22.9805 63.1993 23.0455C63.356 23.1104 63.4983 23.2056 63.6182 23.3256C63.7381 23.4456 63.8332 23.588 63.898 23.7448C63.9628 23.9015 63.9961 24.0695 63.996 24.2391V33.2801C63.996 33.6228 64.1321 33.9514 64.3744 34.1937C64.6167 34.436 64.9453 34.5721 65.288 34.5721H68.517C68.8597 34.5721 69.1883 34.7082 69.4306 34.9505C69.6729 35.1928 69.809 35.5214 69.809 35.8641V39.0931C69.809 39.4358 69.9451 39.7644 70.1874 40.0067C70.4297 40.249 70.7583 40.3851 71.101 40.3851H86.279C86.6217 40.3851 86.9503 40.249 87.1926 40.0067C87.4349 39.7644 87.571 39.4358 87.571 39.0931V35.8641C87.571 35.5214 87.7071 35.1928 87.9494 34.9505C88.1917 34.7082 88.5203 34.5721 88.863 34.5721H92.092C92.2617 34.5721 92.4297 34.5387 92.5864 34.4738C92.7432 34.4088 92.8856 34.3137 93.0056 34.1937C93.1256 34.0737 93.2207 33.9313 93.2857 33.7745C93.3506 33.6178 93.384 33.4498 93.384 33.2801V24.2391C93.384 23.8964 93.5201 23.5678 93.7624 23.3255C94.0047 23.0832 94.3333 22.9471 94.676 22.9471H97.579C97.9217 22.9471 98.2503 23.0832 98.4926 23.3255C98.7349 23.5678 98.871 23.8964 98.871 24.2391V33.2801C98.871 33.6228 99.0071 33.9514 99.2494 34.1937C99.4917 34.436 99.8203 34.5721 100.163 34.5721H103.715C104.058 34.5721 104.386 34.436 104.629 34.1937C104.871 33.9514 105.007 33.6228 105.007 33.2801V24.2391C105.007 23.8964 105.143 23.5678 105.385 23.3255C105.628 23.0832 105.956 22.9471 106.299 22.9471H109.205C109.548 22.9471 109.876 23.0832 110.119 23.3255C110.361 23.5678 110.497 23.8964 110.497 24.2391V39.0921C110.497 39.4329 110.632 39.7597 110.872 40.0015C111.112 40.2433 111.438 40.3805 111.779 40.3831H115.331C115.674 40.3831 116.002 40.247 116.245 40.0047C116.487 39.7624 116.623 39.4338 116.623 39.0911V18.1041C116.623 17.7615 116.487 17.4328 116.245 17.1905C116.002 16.9482 115.674 16.8121 115.331 16.8121H110.815Z" fill="#FF3B30"/>
</g>
<defs>
<clipPath id="clip0_2999_35557">
<rect width="116.627" height="29.383" fill="white" transform="translate(0 11)"/>
</clipPath>
</defs>
</svg>
